<svg width="54" height="16" viewBox="0 0 54 16" fill="none" xmlns="http://www.w3.org/2000/svg">
<g clip-path="url(#clip0_49_2498)">
<path d="M8.45301 16C12.9376 16 16.573 12.4183 16.573 8C16.573 3.58172 12.9376 0 8.45301 0C3.96846 0 0.333008 3.58172 0.333008 8C0.333008 12.4183 3.96846 16 8.45301 16Z" fill="#FF0000"/>
<path d="M8.45305 12.8C11.1438 12.8 13.3251 10.6509 13.3251 7.99995C13.3251 5.34898 11.1438 3.19995 8.45305 3.19995C5.76232 3.19995 3.58105 5.34898 3.58105 7.99995C3.58105 10.6509 5.76232 12.8 8.45305 12.8Z" fill="#FF0000" stroke="white" stroke-width="1.2"/>
<path d="M6.8291 10.3633L11.0471 8.00061L6.8291 5.63661V10.3633ZM25.2884 6.42795C24.9024 8.32995 24.6091 10.6519 24.4551 11.6106H24.3464C24.2218 10.6226 23.9284 8.31595 23.5284 6.44395L22.5398 1.78461H19.5264V14.3513H21.3951V3.99128L21.5798 4.95861L23.4798 14.3493H25.3491L27.2178 4.95861L27.4178 3.98595V14.3506H29.2871V1.78395H26.2451L25.2884 6.42795ZM34.3398 12.4639C34.1691 12.8086 33.7998 13.0479 33.4278 13.0479C32.9958 13.0479 32.8251 12.7186 32.8251 11.9106V5.16928H30.6931V12.0293C30.6931 13.7226 31.2638 14.4999 32.5318 14.4999C33.3958 14.4999 34.0904 14.1253 34.5704 13.2273H34.6171L34.8018 14.3499H36.4698V5.16995H34.3378V12.4633L34.3398 12.4639ZM40.5944 8.79328C39.8991 8.29861 39.4671 7.96928 39.4671 7.25061C39.4671 6.74195 39.7138 6.45728 40.3004 6.45728C40.9038 6.45728 41.1044 6.86061 41.1184 8.23994L42.9111 8.16594C43.0498 5.93528 42.2924 5.00594 40.3311 5.00594C38.5091 5.00594 37.6124 5.79928 37.6124 7.43128C37.6124 8.91395 38.3544 9.58794 39.5591 10.4726C40.5944 11.2519 41.1971 11.6859 41.1971 12.3153C41.1971 12.7953 40.8878 13.1239 40.3471 13.1239C39.7138 13.1239 39.3424 12.5393 39.4371 11.5206L37.6304 11.5499C37.3511 13.4513 38.1411 14.5599 40.2404 14.5599C42.0791 14.5599 43.0371 13.7359 43.0371 12.0893C43.0351 10.5913 42.2638 9.99128 40.5944 8.79328ZM46.2478 5.16928H44.2084V14.3493H46.2484V5.16995L46.2478 5.16928ZM45.2431 1.54395C44.4564 1.54395 44.0844 1.82861 44.0844 2.81795C44.0844 3.83661 44.4538 4.09061 45.2438 4.09061C46.0471 4.09061 46.4024 3.83528 46.4024 2.81795C46.4024 1.87528 46.0471 1.54395 45.2431 1.54395ZM53.1051 11.0399L51.2364 10.9499C51.2364 12.5673 51.0518 13.0913 50.4191 13.0913C49.7858 13.0913 49.6771 12.5066 49.6771 10.6046V8.82461C49.6771 6.98128 49.8018 6.39861 50.4351 6.39861C51.0218 6.39861 51.1764 6.95195 51.1764 8.66061L53.0284 8.54194C53.1531 7.11928 52.9664 6.14528 52.3958 5.59194C51.9778 5.18661 51.3451 4.99395 50.4651 4.99395C48.3958 4.99395 47.5458 6.07261 47.5458 9.09661V10.3846C47.5458 13.4999 48.2711 14.5033 50.3884 14.5033C51.2844 14.5033 51.9018 14.3233 52.3191 13.9339C52.9204 13.3913 53.1511 12.4639 53.1051 11.0399Z" fill="white"/>
</g>
<defs>
<clipPath id="clip0_49_2498">
<rect width="53.3333" height="16" fill="white" transform="translate(0.333008)"/>
</clipPath>
</defs>
</svg>
