<svg width="81" height="24" viewBox="0 0 81 24" fill="none" xmlns="http://www.w3.org/2000/svg">
<g clip-path="url(#clip0_49_2494)">
<path d="M12.8465 24C19.5733 24 25.0265 18.6274 25.0265 12C25.0265 5.37258 19.5733 0 12.8465 0C6.11968 0 0.666504 5.37258 0.666504 12C0.666504 18.6274 6.11968 24 12.8465 24Z" fill="#FF0000"/>
<path d="M12.8466 19.2C16.8827 19.2 20.1546 15.9765 20.1546 12C20.1546 8.0236 16.8827 4.80005 12.8466 4.80005C8.81048 4.80005 5.53857 8.0236 5.53857 12C5.53857 15.9765 8.81048 19.2 12.8466 19.2Z" fill="#FF0000" stroke="white" stroke-width="1.2"/>
<path d="M10.4106 15.5449L16.7376 12.0009L10.4106 8.45492V15.5449ZM38.0996 9.64192C37.5206 12.4949 37.0806 15.9779 36.8496 17.4159H36.6866C36.4996 15.9339 36.0596 12.4739 35.4596 9.66592L33.9766 2.67692H29.4566V21.5269H32.2596V5.98692L32.5366 7.43792L35.3866 21.5239H38.1906L40.9936 7.43792L41.2936 5.97892V21.5259H44.0976V2.67592H39.5346L38.0996 9.64192ZM51.6766 18.6959C51.4206 19.2129 50.8666 19.5719 50.3086 19.5719C49.6606 19.5719 49.4046 19.0779 49.4046 17.8659V7.75392H46.2066V18.0439C46.2066 20.5839 47.0626 21.7499 48.9646 21.7499C50.2606 21.7499 51.3026 21.1879 52.0226 19.8409H52.0926L52.3696 21.5249H54.8716V7.75492H51.6736V18.6949L51.6766 18.6959ZM61.0586 13.1899C60.0156 12.4479 59.3676 11.9539 59.3676 10.8759C59.3676 10.1129 59.7376 9.68592 60.6176 9.68592C61.5226 9.68592 61.8236 10.2909 61.8446 12.3599L64.5336 12.2489C64.7416 8.90292 63.6056 7.50892 60.6636 7.50892C57.9306 7.50892 56.5856 8.69892 56.5856 11.1469C56.5856 13.3709 57.6986 14.3819 59.5056 15.7089C61.0586 16.8779 61.9626 17.5289 61.9626 18.4729C61.9626 19.1929 61.4986 19.6859 60.6876 19.6859C59.7376 19.6859 59.1806 18.8089 59.3226 17.2809L56.6126 17.3249C56.1936 20.1769 57.3786 21.8399 60.5276 21.8399C63.2856 21.8399 64.7226 20.6039 64.7226 18.1339C64.7196 15.8869 63.5626 14.9869 61.0586 13.1899ZM69.5386 7.75392H66.4796V21.5239H69.5396V7.75492L69.5386 7.75392ZM68.0316 2.31592C66.8516 2.31592 66.2936 2.74292 66.2936 4.22692C66.2936 5.75492 66.8476 6.13592 68.0326 6.13592C69.2376 6.13592 69.7706 5.75292 69.7706 4.22692C69.7706 2.81292 69.2376 2.31592 68.0316 2.31592ZM79.8246 16.5599L77.0216 16.4249C77.0216 18.8509 76.7446 19.6369 75.7956 19.6369C74.8456 19.6369 74.6826 18.7599 74.6826 15.9069V13.2369C74.6826 10.4719 74.8696 9.59792 75.8196 9.59792C76.6996 9.59792 76.9316 10.4279 76.9316 12.9909L79.7096 12.8129C79.8966 10.6789 79.6166 9.21792 78.7606 8.38792C78.1336 7.77992 77.1846 7.49092 75.8646 7.49092C72.7606 7.49092 71.4856 9.10892 71.4856 13.6449V15.5769C71.4856 20.2499 72.5736 21.7549 75.7496 21.7549C77.0936 21.7549 78.0196 21.4849 78.6456 20.9009C79.5476 20.0869 79.8936 18.6959 79.8246 16.5599Z" fill="white"/>
</g>
<defs>
<clipPath id="clip0_49_2494">
<rect width="80" height="24" fill="white" transform="translate(0.666504)"/>
</clipPath>
</defs>
</svg>
